<svg width="100" height="100" viewBox="0 0 100 100" fill="none" xmlns="http://www.w3.org/2000/svg">
<path d="M33.2875 14.5812C32.7423 15.1393 32.4371 15.8886 32.4371 16.6687C32.4371 17.4489 32.7423 18.1981 33.2875 18.7562L63.7437 50L33.2875 81.2375C32.7423 81.7956 32.4371 82.5448 32.4371 83.325C32.4371 84.1051 32.7423 84.8544 33.2875 85.4125C33.5524 85.6846 33.8693 85.9009 34.2192 86.0486C34.5691 86.1963 34.9451 86.2724 35.325 86.2724C35.7048 86.2724 36.0808 86.1963 36.4307 86.0486C36.7807 85.9009 37.0975 85.6846 37.3625 85.4125L69.75 52.1812C70.3188 51.5976 70.6372 50.8149 70.6372 50C70.6372 49.185 70.3188 48.4023 69.75 47.8187L37.3625 14.5875C37.0975 14.3153 36.7807 14.099 36.4307 13.9513C36.0808 13.8036 35.7048 13.7275 35.325 13.7275C34.9451 13.7275 34.5691 13.8036 34.2192 13.9513C33.8693 14.099 33.5524 14.3153 33.2875 14.5875V14.5812Z" fill="#FD9347"/>
</svg>
