<svg width="17" height="33" viewBox="0 0 17 33" fill="none" xmlns="http://www.w3.org/2000/svg">
<path d="M14.5903 1.27261L0.66372 15.5594C0.41912 15.8103 0.282227 16.1469 0.282227 16.4973C0.282227 16.8477 0.41912 17.1843 0.66372 17.4352L14.5903 31.7274C14.7043 31.8444 14.8405 31.9374 14.991 32.0009C15.1415 32.0644 15.3031 32.0971 15.4665 32.0971C15.6298 32.0971 15.7915 32.0644 15.9419 32.0009C16.0924 31.9374 16.2286 31.8444 16.3426 31.7274C16.577 31.4874 16.7082 31.1652 16.7082 30.8297C16.7082 30.4943 16.577 30.1721 16.3426 29.9321L3.24641 16.4973L16.3426 3.06517C16.5762 2.8253 16.7069 2.50371 16.7069 2.16889C16.7069 1.83406 16.5762 1.51247 16.3426 1.27261C16.2286 1.15558 16.0924 1.06257 15.9419 0.999062C15.7915 0.935552 15.6298 0.902832 15.4665 0.902832C15.3031 0.902832 15.1415 0.935552 14.991 0.999062C14.8405 1.06257 14.7043 1.15558 14.5903 1.27261Z" fill="#FD9347"/>
</svg>
