<svg width="18" height="33" viewBox="0 0 18 33" fill="none" xmlns="http://www.w3.org/2000/svg">
<path d="M1.3134 1.26992C1.07899 1.50991 0.947754 1.83207 0.947754 2.16754C0.947754 2.50302 1.07899 2.82518 1.3134 3.06517L14.4096 16.5L1.3134 29.9321C1.07899 30.1721 0.947754 30.4943 0.947754 30.8297C0.947754 31.1652 1.07899 31.4874 1.3134 31.7274C1.42734 31.8444 1.56356 31.9374 1.71404 32.0009C1.86452 32.0644 2.02619 32.0971 2.18952 32.0971C2.35285 32.0971 2.51453 32.0644 2.665 32.0009C2.81548 31.9374 2.95171 31.8444 3.06565 31.7274L16.9923 17.4379C17.2369 17.187 17.3738 16.8504 17.3738 16.5C17.3738 16.1495 17.2369 15.813 16.9923 15.562L3.06565 1.27261C2.95171 1.15558 2.81548 1.06257 2.665 0.999062C2.51453 0.935552 2.35285 0.902832 2.18952 0.902832C2.02619 0.902832 1.86452 0.935552 1.71404 0.999062C1.56356 1.06257 1.42734 1.15558 1.3134 1.27261V1.26992Z" fill="#FD9347"/>
</svg>
