<svg width="81" height="73" viewBox="0 0 81 73" fill="none" xmlns="http://www.w3.org/2000/svg">
<path d="M69.8584 68.5041C69.8584 69.4784 69.471 70.4128 68.7815 71.1017C68.092 71.7906 67.1568 72.1776 66.1816 72.1776H14.707C13.7319 72.1776 12.7967 71.7906 12.1072 71.1017C11.4176 70.4128 11.0303 69.4784 11.0303 68.5041V35.4429H0L37.9699 0.956415C38.6468 0.341027 39.5291 0 40.4443 0C41.3596 0 42.2419 0.341027 42.9188 0.956415L80.8887 35.4429H69.8584V68.5041ZM62.5049 64.8307V28.6727L40.4443 8.63763L18.3838 28.6727V64.8307H62.5049ZM40.4443 57.4837L28.0941 45.1445C27.3259 44.377 26.7165 43.4659 26.3008 42.4631C25.8851 41.4603 25.6711 40.3855 25.6711 39.3001C25.6711 38.2146 25.8851 37.1398 26.3008 36.1371C26.7165 35.1343 27.3259 34.2231 28.0941 33.4556C28.8623 32.6881 29.7743 32.0792 30.778 31.6639C31.7817 31.2485 32.8574 31.0347 33.9438 31.0347C35.0302 31.0347 36.106 31.2485 37.1097 31.6639C38.1134 32.0792 39.0254 32.6881 39.7936 33.4556L40.4443 34.1058L41.0951 33.4556C41.8633 32.6881 42.7753 32.0792 43.779 31.6639C44.7827 31.2485 45.8585 31.0347 46.9448 31.0347C48.0312 31.0347 49.107 31.2485 50.1107 31.6639C51.1144 32.0792 52.0264 32.6881 52.7946 33.4556C53.5628 34.2231 54.1721 35.1343 54.5879 36.1371C55.0036 37.1398 55.2176 38.2146 55.2176 39.3001C55.2176 40.3855 55.0036 41.4603 54.5879 42.4631C54.1721 43.4659 53.5628 44.377 52.7946 45.1445L40.4443 57.4837Z" fill="#FD9347"/>
</svg>
