<svg width="68" height="74" viewBox="0 0 68 74" fill="none" xmlns="http://www.w3.org/2000/svg">
<path d="M44.4631 5.25773C43.7695 5.25773 43.1043 5.5347 42.6139 6.02771C42.1234 6.52072 41.8479 7.18938 41.8479 7.8866V13.1443C41.8479 13.8415 42.1234 14.5102 42.6139 15.0032C43.1043 15.4962 43.7695 15.7732 44.4631 15.7732C45.1567 15.7732 45.8219 15.4962 46.3123 15.0032C46.8028 14.5102 47.0783 13.8415 47.0783 13.1443C47.0783 12.4471 47.3538 11.7785 47.8443 11.2854C48.3347 10.7924 48.9999 10.5155 49.6935 10.5155C50.3871 10.5155 51.0523 10.7924 51.5428 11.2854C52.0332 11.7785 52.3087 12.4471 52.3087 13.1443C52.3093 14.4445 51.9901 15.7246 51.3796 16.8707C50.769 18.0169 49.8861 18.9936 48.8093 19.7138C47.7325 20.434 46.4953 20.8755 45.2077 20.9989C43.9202 21.1222 42.6222 20.9238 41.4295 20.421C40.9675 24.5829 39.8941 28.6528 38.2441 32.498C36.0944 37.4351 33.27 40.9577 30.7228 43.8127C28.9026 45.8579 27.7258 48.7918 27.0301 52.2829C26.3345 55.753 26.1566 59.5438 26.1566 63.0928C26.1566 64.6859 25.5813 66.6102 24.5352 68.3505H46.6337C46.0894 66.8144 45.0862 65.4848 43.7614 64.5436C42.4366 63.6025 40.8549 63.0958 39.2327 63.0928H36.6175C35.9239 63.0928 35.2587 62.8158 34.7682 62.3228C34.2778 61.8298 34.0023 61.1611 34.0023 60.4639C34.0023 59.7667 34.2778 59.098 34.7682 58.605C35.2587 58.112 35.9239 57.8351 36.6175 57.8351H39.2327C40.1271 57.8351 41.0006 57.9244 41.8479 58.0979V49.9485C41.8479 49.2512 42.1234 48.5826 42.6139 48.0896C43.1043 47.5966 43.7695 47.3196 44.4631 47.3196C45.1567 47.3196 45.8219 47.5966 46.3123 48.0896C46.8028 48.5826 47.0783 49.2512 47.0783 49.9485V60.4639C49.5889 62.3567 51.3986 65.1433 52.0472 68.3505H62.325C61.784 66.8122 60.7816 65.4805 59.4561 64.5388C58.1305 63.5972 56.5471 63.0919 54.924 63.0928C54.2304 63.0928 53.5652 62.8158 53.0747 62.3228C52.5843 61.8298 52.3087 61.1611 52.3087 60.4639V23.6598C52.3087 22.9626 52.5843 22.2939 53.0747 21.8009C53.5652 21.3079 54.2304 21.0309 54.924 21.0309H60.1544C60.848 21.0309 61.5132 20.754 62.0036 20.261C62.4941 19.7679 62.7696 19.0993 62.7696 18.4021V13.4913C62.7697 13.037 62.6526 12.5904 62.4299 12.1951C62.2071 11.7998 61.8863 11.4693 61.4986 11.2358L52.2041 5.63103C51.7979 5.38659 51.3333 5.25757 50.8599 5.25773H44.4631ZM15.6958 68.3505C17.3382 68.3505 18.6039 67.5513 19.5402 66.3789C20.5339 65.1223 20.9262 63.7132 20.9262 63.0928C20.9262 59.4124 21.1093 55.222 21.8991 51.2471C22.6889 47.3038 24.1325 43.3342 26.8209 40.311C29.2112 37.6296 31.6224 34.5801 33.4635 30.3792C35.289 26.1888 36.6175 20.705 36.6175 13.1443V7.8866C36.6175 5.79494 37.4441 3.78896 38.9154 2.30993C40.3868 0.830907 42.3823 0 44.4631 0H50.8599C52.2825 0.000135833 53.6782 0.389059 54.8978 1.12515L64.1923 6.7299C65.3536 7.43065 66.3146 8.42169 66.9819 9.60656C67.6492 10.7914 67.9999 12.1298 68 13.4913V18.4021C68 20.4937 67.1734 22.4997 65.7021 23.9787C64.2307 25.4578 62.2352 26.2887 60.1544 26.2887H57.5392V58.0979C60.4927 58.704 63.1472 60.3172 65.0535 62.6645C66.9597 65.0119 68.0006 67.9492 68 70.9794C68 71.6766 67.7245 72.3453 67.234 72.8383C66.7436 73.3313 66.0784 73.6083 65.3848 73.6083H14.3882C11.3016 73.6092 8.29663 72.6121 5.81719 70.7643C3.33775 68.9164 1.51539 66.3158 0.619388 63.3468C-0.276615 60.3777 -0.198735 57.1976 0.84152 54.2765C1.88177 51.3553 3.82922 48.848 6.39612 47.1251C6.68133 46.9259 7.00315 46.7859 7.34278 46.7131C7.68242 46.6403 8.03307 46.6363 8.37428 46.7012C8.71549 46.7661 9.04042 46.8986 9.33012 47.0911C9.61981 47.2836 9.86847 47.5322 10.0616 47.8223C10.2547 48.1125 10.3884 48.4383 10.4549 48.781C10.5213 49.1236 10.5193 49.4761 10.4488 49.8179C10.3783 50.1597 10.2407 50.484 10.0442 50.7718C9.84773 51.0596 9.59617 51.3052 9.30423 51.4942C7.66939 52.59 6.42875 54.1856 5.76575 56.045C5.10276 57.9043 5.05261 59.9288 5.62272 61.8191C6.19283 63.7093 7.35293 65.365 8.93149 66.5412C10.51 67.7174 12.4232 68.3518 14.3882 68.3505H15.6958Z" fill="#FD9347"/>
</svg>
