<svg width="61" height="73" viewBox="0 0 61 73" fill="none" xmlns="http://www.w3.org/2000/svg">
<g clip-path="url(#clip0_218_519)">
<path d="M9.68288 73.0001H60.2785V66.9383H9.68288C7.63296 66.9383 6.60801 65.9515 6.60801 63.9779C6.60801 62.0043 7.63296 61.0175 9.68288 61.0175H60.2785V0.82251H9.68288C7.0739 0.82251 4.9308 1.69184 3.2536 3.43049C1.57639 5.16914 0.737793 7.30722 0.737793 9.84471V61.0175H1.29686C0.924149 62.1453 0.737793 63.1321 0.737793 63.9779C0.737793 66.5154 1.57639 68.6535 3.2536 70.3921C4.9308 72.1308 7.0739 73.0001 9.68288 73.0001ZM6.60801 9.84471C6.60801 7.8711 7.63296 6.8843 9.68288 6.8843H54.4083V54.9557H9.68288C8.93745 54.9557 7.9125 55.1437 6.60801 55.5196V9.84471ZM18.628 24.9287H45.4632V30.8495H18.628V24.9287ZM18.628 12.8051H45.4632V18.8669H18.628V12.8051Z" fill="#FD9347"/>
</g>
<defs>
<clipPath id="clip0_218_519">
<rect width="60.3793" height="72.1776" fill="white" transform="translate(0.318604 0.82251)"/>
</clipPath>
</defs>
</svg>
