<svg width="87" height="65" viewBox="0 0 87 65" fill="none" xmlns="http://www.w3.org/2000/svg">
<path d="M76.236 1.07355C75.3178 0.482051 74.2677 0.12421 73.1781 0.0314755C72.0885 -0.0612587 70.9927 0.113955 69.987 0.541714L37.0331 13.4653C36.253 13.7814 35.4186 13.944 34.5763 13.9439H13.4794C11.7088 13.9439 10.0106 14.6443 8.75861 15.891C7.50657 17.1378 6.80318 18.8287 6.80318 20.5918V21.1237H0.126953V37.0786H6.80318V37.77C6.84502 39.5054 7.56683 41.1556 8.81436 42.368C10.0619 43.5804 11.7362 44.2589 13.4794 44.2584L21.4909 61.1707C22.0334 62.3096 22.8874 63.273 23.955 63.9503C25.0226 64.6277 26.2604 64.9914 27.5262 64.9999H30.891C32.6524 64.9858 34.3368 64.2793 35.5773 63.034C36.8178 61.7888 37.5139 60.1059 37.5138 58.352V44.8966L69.987 57.8201C70.7858 58.1366 71.6376 58.2991 72.4973 58.2988C73.831 58.2774 75.1298 57.8709 76.236 57.1288C77.1144 56.5381 77.8391 55.7477 78.3499 54.8229C78.8607 53.8981 79.143 52.8654 79.1735 51.8104V6.55143C79.1686 5.46923 78.8985 4.40459 78.3866 3.44995C77.8746 2.49532 77.1364 1.67957 76.236 1.07355ZM30.8376 20.5918V37.77H13.4794V20.5918H30.8376ZM30.8376 58.352H27.4728L20.9034 44.2584H30.8376V58.352ZM39.49 38.5678C38.8559 38.2451 38.1946 37.9781 37.5138 37.77V20.2195C38.1881 20.081 38.8492 19.8853 39.49 19.6345L72.4973 6.55143V51.6509L39.49 38.5678ZM79.3337 22.4532V35.7491C81.1044 35.7491 82.8025 35.0487 84.0545 33.8019C85.3066 32.5552 86.01 30.8643 86.01 29.1011C86.01 27.338 85.3066 25.6471 84.0545 24.4004C82.8025 23.1536 81.1044 22.4532 79.3337 22.4532Z" fill="#FD9347"/>
</svg>
