<svg width="85" height="71" viewBox="0 0 85 71" fill="none" xmlns="http://www.w3.org/2000/svg">
<path d="M61.2353 16.892C60.9077 16.6178 60.5185 16.4002 60.09 16.2517C59.6616 16.1033 59.2023 16.0269 58.7384 16.0269C58.2746 16.0269 57.8153 16.1033 57.3869 16.2517C56.9584 16.4002 56.5692 16.6178 56.2416 16.892L42.4999 28.3408L28.7228 16.8624C28.3949 16.5885 28.0057 16.3713 27.5772 16.2231C27.1488 16.0748 26.6897 15.9985 26.2259 15.9985C25.7622 15.9985 25.3031 16.0748 24.8746 16.2231C24.4462 16.3713 24.057 16.5885 23.7291 16.8624C23.4012 17.1363 23.1411 17.4615 22.9636 17.8193C22.7862 18.1772 22.6948 18.5607 22.6948 18.9481C22.6948 19.3354 22.7862 19.7189 22.9636 20.0768C23.1411 20.4346 23.4012 20.7598 23.7291 21.0337L39.9853 34.6124C41.3666 35.7662 43.5978 35.7662 44.9791 34.6124L61.2353 21.0337C61.5634 20.7629 61.8239 20.4405 62.0017 20.085C62.1795 19.7295 62.271 19.3481 62.271 18.9628C62.271 18.5776 62.1795 18.1962 62.0017 17.8407C61.8239 17.4852 61.5634 17.1628 61.2353 16.892Z" fill="#FD9347"/>
<path d="M61.2353 36.3876C60.9076 36.1134 60.5185 35.8958 60.09 35.7473C59.6616 35.5989 59.2023 35.5225 58.7384 35.5225C58.2746 35.5225 57.8153 35.5989 57.3868 35.7473C56.9584 35.8958 56.5692 36.1134 56.2415 36.3876L42.4999 47.8364L28.7582 36.358C28.096 35.8049 27.1978 35.4941 26.2613 35.4941C25.3248 35.4941 24.4267 35.8049 23.7645 36.358C23.1023 36.9112 22.7302 37.6614 22.7302 38.4437C22.7302 39.2259 23.1023 39.9761 23.7645 40.5293L40.0207 54.108C41.402 55.2618 43.6332 55.2618 45.0145 54.108L61.2707 40.5293C61.9209 39.975 62.2821 39.2283 62.2755 38.4524C62.2689 37.6764 61.8949 36.9341 61.2353 36.3876Z" fill="#FD9347"/>
</svg>
