<svg width="16" height="16" viewBox="0 0 16 16" fill="none" xmlns="http://www.w3.org/2000/svg">
<path d="M3.69071 14.5907C3.79855 14.6468 3.91963 14.6725 4.04096 14.665C4.16229 14.6575 4.27928 14.617 4.37937 14.5481L13.046 8.54806C13.1346 8.48671 13.207 8.4048 13.257 8.30937C13.3069 8.21393 13.333 8.1078 13.333 8.00006C13.333 7.89232 13.3069 7.78619 13.257 7.69076C13.207 7.59532 13.1346 7.51341 13.046 7.45206L4.37937 1.45206C4.27936 1.38286 4.16231 1.34233 4.04092 1.33487C3.91952 1.32742 3.7984 1.35331 3.69066 1.40975C3.58292 1.4662 3.49268 1.55104 3.42971 1.65509C3.36673 1.75914 3.33342 1.87843 3.33337 2.00006V14.0001C3.33335 14.1218 3.36664 14.2411 3.42963 14.3452C3.49262 14.4494 3.58291 14.5343 3.69071 14.5907Z" fill="black"/>
</svg>
